<svg viewBox="0 0 200 40" xmlns="http://www.w3.org/2000/svg">
  <!-- Brain mark (scaled to 26x26) -->
  <g transform="translate(2, 7)">
    <path d="M 13 2 C 6.5 2 2 6.5 2 13 C 2 14.5 2.5 16 3.5 17.5 L 3.5 21 C 3.5 23.5 5 25 7 25 L 19 25 C 21 25 22.5 23.5 22.5 21 L 22.5 17.5 C 23.5 16 24 14.5 24 13 C 24 6.5 19.5 2 13 2 Z M 10 5 C 8.5 5 7.5 6 7.5 7.5 C 7.5 9 8.5 10 10 10 C 11.5 10 12.5 9 12.5 7.5 C 12.5 6 11.5 5 10 5 Z M 16 5 C 14.5 5 13.5 6 13.5 7.5 C 13.5 9 14.5 10 16 10 C 17.5 10 18.5 9 18.5 7.5 C 18.5 6 17.5 5 16 5 Z M 7 14 C 6 14 5 15 5 16 C 5 17 6 18 7 18 C 8 18 9 17 9 16 C 9 15 8 14 7 14 Z M 19 14 C 18 14 17 15 17 16 C 17 17 18 18 19 18 C 20 18 21 17 21 16 C 21 15 20 14 19 14 Z M 10 20 C 9 20 8 21 8 22 C 8 23 9 24 10 24 C 11 24 12 23 12 22 C 12 21 11 20 10 20 Z M 16 20 C 15 20 14 21 14 22 C 14 23 15 24 16 24 C 17 24 18 23 18 22 C 18 21 17 20 16 20 Z" fill="#ff6a3d"/>
  </g>
  <!-- "Company Mind" text -->
  <text x="34" y="27" font-family="system-ui, -apple-system, sans-serif" font-size="16" font-weight="600" fill="#ff6a3d" letter-spacing="-0.01em">
    Company Mind
  </text>
</svg>
