<svg viewBox="0 0 64 64" xmlns="http://www.w3.org/2000/svg">
  <defs>
    <linearGradient id="brainGradient" x1="0%" y1="0%" x2="100%" y2="100%">
      <stop offset="0%" style="stop-color:#8b5cf6;stop-opacity:1" />
      <stop offset="50%" style="stop-color:#d946ef;stop-opacity:1" />
      <stop offset="100%" style="stop-color:#fb923c;stop-opacity:1" />
    </linearGradient>
  </defs>
  <!-- Brain mark: abstract geometric brain silhouette -->
  <path d="M 32 8 C 20 8 12 16 12 28 C 12 32 13 36 15 39 L 15 48 C 15 54 19 58 25 58 L 39 58 C 45 58 49 54 49 48 L 49 39 C 51 36 52 32 52 28 C 52 16 44 8 32 8 Z M 28 14 C 25 14 23 16 23 19 C 23 22 25 24 28 24 C 31 24 33 22 33 19 C 33 16 31 14 28 14 Z M 36 14 C 33 14 31 16 31 19 C 31 22 33 24 36 24 C 39 24 41 22 41 19 C 41 16 39 14 36 14 Z M 20 32 C 18 32 16 34 16 36 C 16 38 18 40 20 40 C 22 40 24 38 24 36 C 24 34 22 32 20 32 Z M 44 32 C 42 32 40 34 40 36 C 40 38 42 40 44 40 C 46 40 48 38 48 36 C 48 34 46 32 44 32 Z M 28 46 C 26 46 24 48 24 50 C 24 52 26 54 28 54 C 30 54 32 52 32 50 C 32 48 30 46 28 46 Z M 36 46 C 34 46 32 48 32 50 C 32 52 34 54 36 54 C 38 54 40 52 40 50 C 40 48 38 46 36 46 Z" fill="url(#brainGradient)"/>
</svg>
